<?xml version="1.0" encoding="UTF-8" standalone="no"?>
<svg
   xmlns:dc="http://purl.org/dc/elements/1.1/"
   xmlns:cc="http://creativecommons.org/ns#"
   xmlns:rdf="http://www.w3.org/1999/02/22-rdf-syntax-ns#"
   xmlns:svg="http://www.w3.org/2000/svg"
   xmlns="http://www.w3.org/2000/svg"
   xmlns:sodipodi="http://sodipodi.sourceforge.net/DTD/sodipodi-0.dtd"
   xmlns:inkscape="http://www.inkscape.org/namespaces/inkscape"
   width="210mm"
   height="297mm"
   viewBox="0 0 210 297"
   version="1.1"
   id="svg461"
   inkscape:version="1.0.2 (e86c870879, 2021-01-15)"
   sodipodi:docname="clear.svg">
  <defs
     id="defs455" />
  <sodipodi:namedview
     id="base"
     pagecolor="#ffffff"
     bordercolor="#666666"
     borderopacity="1.0"
     inkscape:pageopacity="0.0"
     inkscape:pageshadow="2"
     inkscape:zoom="0.35"
     inkscape:cx="400"
     inkscape:cy="560"
     inkscape:document-units="mm"
     inkscape:current-layer="layer1"
     inkscape:document-rotation="0"
     showgrid="false"
     inkscape:window-width="1267"
     inkscape:window-height="1041"
     inkscape:window-x="156"
     inkscape:window-y="0"
     inkscape:window-maximized="0" />
  <metadata
     id="metadata458">
    <rdf:RDF>
      <cc:Work
         rdf:about="">
        <dc:format>image/svg+xml</dc:format>
        <dc:type
           rdf:resource="http://purl.org/dc/dcmitype/StillImage" />
        <dc:title></dc:title>
      </cc:Work>
    </rdf:RDF>
  </metadata>
  <g
     inkscape:label="Layer 1"
     inkscape:groupmode="layer"
     id="layer1">
    <path
       fill="#010202"
       d="m 105.85919,160.28775 c -14.589181,0 -26.458338,-11.86918 -26.458338,-26.45833 0,-14.58918 11.869157,-26.45835 26.458338,-26.45835 14.58915,0 26.45833,11.86917 26.45833,26.45835 0,14.58915 -11.86918,26.45833 -26.45833,26.45833 z m 0,-47.62501 c -11.671381,0 -21.166671,9.4953 -21.166671,21.16668 0,11.67138 9.49529,21.16666 21.166671,21.16666 11.67138,0 21.16666,-9.49528 21.16666,-21.16666 0,-11.67138 -9.49528,-21.16668 -21.16666,-21.16668 z"
       id="path209"
       style="stroke-width:0.264583" />
    <path
       fill="#010202"
       d="m 105.83334,103.1119 c -1.46127,0 -2.64584,-1.18455 -2.64584,-2.64583 V 86.178568 c 0,-1.46128 1.18457,-2.645833 2.64584,-2.645833 1.46129,0 2.64583,1.184553 2.64583,2.645833 v 14.287502 c 0,1.46128 -1.18454,2.64583 -2.64583,2.64583 z"
       id="path211"
       style="stroke-width:0.264583" />
    <path
       fill="#010202"
       d="m 105.83334,184.0744 c -1.46127,0 -2.64584,-1.18454 -2.64584,-2.64583 v -14.2875 c 0,-1.46127 1.18457,-2.64584 2.64584,-2.64584 1.46129,0 2.64583,1.18457 2.64583,2.64584 v 14.2875 c 0,1.46129 -1.18454,2.64583 -2.64583,2.64583 z"
       id="path213"
       style="stroke-width:0.264583" />
    <path
       fill="#010202"
       d="m 72.495836,136.4494 h -14.2875 c -1.461281,0 -2.645833,-1.18454 -2.645833,-2.64583 0,-1.46127 1.184552,-2.64584 2.645833,-2.64584 h 14.2875 c 1.461293,0 2.645833,1.18457 2.645833,2.64584 0,1.46129 -1.18454,2.64583 -2.645833,2.64583 z"
       id="path215"
       style="stroke-width:0.264583" />
    <path
       fill="#010202"
       d="m 153.45834,136.4494 h -14.2875 c -1.46127,0 -2.64584,-1.18454 -2.64584,-2.64583 0,-1.46127 1.18457,-2.64584 2.64584,-2.64584 h 14.2875 c 1.46129,0 2.64583,1.18457 2.64583,2.64584 0,1.46129 -1.18454,2.64583 -2.64583,2.64583 z"
       id="path217"
       style="stroke-width:0.264583" />
    <path
       fill="#010202"
       d="m 129.26007,113.02267 c -0.67709,0 -1.35432,-0.25826 -1.87094,-0.77489 -1.03315,-1.03327 -1.03315,-2.70862 0,-3.74189 l 10.24924,-10.249246 c 1.03328,-1.03327 2.70862,-1.03327 3.7419,0 1.03314,1.033269 1.03314,2.708616 0,3.741886 l -10.24925,10.24925 c -0.51665,0.51663 -1.19385,0.77489 -1.87095,0.77489 z"
       id="path219"
       style="stroke-width:0.264583" />
    <path
       fill="#010202"
       d="m 72.157354,170.12538 c -0.67709,0 -1.354309,-0.25826 -1.870945,-0.77488 -1.033143,-1.03328 -1.033143,-2.70862 0,-3.7419 L 80.53565,155.35936 c 1.033277,-1.03328 2.708619,-1.03328 3.741896,0 1.033145,1.03327 1.033145,2.70861 0,3.74189 L 74.028302,169.3505 c -0.516625,0.51662 -1.193853,0.77488 -1.870948,0.77488 z"
       id="path221"
       style="stroke-width:0.264583" />
    <path
       fill="#010202"
       d="m 82.406598,113.02267 c -0.677095,0 -1.354296,-0.25826 -1.870948,-0.77489 L 70.286411,101.99853 c -1.033142,-1.03327 -1.033142,-2.708614 0,-3.741886 1.03327,-1.03327 2.708614,-1.03327 3.741891,0 l 10.249244,10.249246 c 1.033145,1.03327 1.033145,2.70862 0,3.74189 -0.516625,0.51663 -1.193853,0.77489 -1.870948,0.77489 z"
       id="path223"
       style="stroke-width:0.264583" />
    <path
       fill="#010202"
       d="m 139.50932,170.12538 c -0.6771,0 -1.3543,-0.25826 -1.87095,-0.77488 l -10.24924,-10.24925 c -1.03315,-1.03328 -1.03315,-2.70862 0,-3.74189 1.03327,-1.03328 2.70861,-1.03328 3.74189,0 l 10.24925,10.24924 c 1.03314,1.03328 1.03314,2.70862 0,3.7419 -0.51663,0.51662 -1.19386,0.77488 -1.87095,0.77488 z"
       id="path225"
       style="stroke-width:0.264583" />
  </g>
</svg>
