<?xml version="1.0" encoding="UTF-8" standalone="no"?>
<svg
   xmlns:dc="http://purl.org/dc/elements/1.1/"
   xmlns:cc="http://creativecommons.org/ns#"
   xmlns:rdf="http://www.w3.org/1999/02/22-rdf-syntax-ns#"
   xmlns:svg="http://www.w3.org/2000/svg"
   xmlns="http://www.w3.org/2000/svg"
   xmlns:sodipodi="http://sodipodi.sourceforge.net/DTD/sodipodi-0.dtd"
   xmlns:inkscape="http://www.inkscape.org/namespaces/inkscape"
   width="210mm"
   height="297mm"
   viewBox="0 0 210 297"
   version="1.1"
   id="svg1011"
   inkscape:version="1.0.2 (e86c870879, 2021-01-15)"
   sodipodi:docname="humidday.svg">
  <defs
     id="defs1005" />
  <sodipodi:namedview
     id="base"
     pagecolor="#ffffff"
     bordercolor="#666666"
     borderopacity="1.0"
     inkscape:pageopacity="0.0"
     inkscape:pageshadow="2"
     inkscape:zoom="0.35"
     inkscape:cx="400"
     inkscape:cy="560"
     inkscape:document-units="mm"
     inkscape:current-layer="layer1"
     inkscape:document-rotation="0"
     showgrid="false"
     inkscape:window-width="1267"
     inkscape:window-height="1041"
     inkscape:window-x="104"
     inkscape:window-y="0"
     inkscape:window-maximized="0" />
  <metadata
     id="metadata1008">
    <rdf:RDF>
      <cc:Work
         rdf:about="">
        <dc:format>image/svg+xml</dc:format>
        <dc:type
           rdf:resource="http://purl.org/dc/dcmitype/StillImage" />
        <dc:title></dc:title>
      </cc:Work>
    </rdf:RDF>
  </metadata>
  <g
     inkscape:label="Layer 1"
     inkscape:groupmode="layer"
     id="layer1">
    <path
       d="m 56.397531,101.61338 c -8.33925,0 -15.123481,6.78424 -15.123481,15.12293 0,2.37936 0.540066,4.65957 1.60486,6.77767 0.836391,1.66346 0.770661,3.63805 -0.175275,5.24235 -0.945936,1.60378 -2.64172,2.61763 -4.502372,2.69102 -14.71323,0.58115 -26.238647,12.60227 -26.238647,27.36698 0,15.00407 12.231995,27.29138 27.26729,27.38998 l 131.894864,-0.002 c 14.90056,-0.14734 27.06737,-12.43355 27.06737,-27.38778 0,-15.10596 -12.29005,-27.39601 -27.39601,-27.39601 -0.56306,0 -1.17489,0.0241 -1.92582,0.0767 -1.45314,0.10138 -2.88875,-0.38232 -3.98587,-1.34194 -1.09711,-0.95964 -1.76645,-2.31692 -1.85956,-3.7717 -1.58458,-24.70281 -22.23689,-44.053145 -47.01746,-44.053145 -16.618254,0 -31.691341,8.494262 -40.320899,22.722735 -0.873076,1.44055 -2.361273,2.39908 -4.034047,2.59899 -1.672231,0.19763 -3.344462,-0.38132 -4.532505,-1.57593 -2.860258,-2.87615 -6.668661,-4.46019 -10.722438,-4.46019 m -17.203775,95.5456 C 18.121884,197.02115 1.0079381,179.81948 1.0079381,158.81499 c 0,-18.25269 12.5902119,-33.51037 29.7299019,-37.38997 -0.278248,-1.53311 -0.418468,-3.09743 -0.418468,-4.68806 0,-14.37911 11.6985,-26.07761 26.078159,-26.07761 4.776247,0 9.354197,1.274586 13.34828,3.663248 10.944267,-14.472763 27.83145,-22.948408 46.261609,-22.948408 28.80423,0 53.08417,21.218124 57.39154,49.17774 19.93697,1.34305 35.74785,17.99142 35.74785,38.26306 0,20.93548 -17.03232,38.13596 -37.96782,38.34191 z"
       style="fill:#000000;fill-opacity:1;fill-rule:nonzero;stroke:none;stroke-width:0.547734"
       id="path262" />
  </g>
</svg>
