<?xml version="1.0" encoding="UTF-8" standalone="no"?>
<svg
   xmlns:dc="http://purl.org/dc/elements/1.1/"
   xmlns:cc="http://creativecommons.org/ns#"
   xmlns:rdf="http://www.w3.org/1999/02/22-rdf-syntax-ns#"
   xmlns:svg="http://www.w3.org/2000/svg"
   xmlns="http://www.w3.org/2000/svg"
   xmlns:sodipodi="http://sodipodi.sourceforge.net/DTD/sodipodi-0.dtd"
   xmlns:inkscape="http://www.inkscape.org/namespaces/inkscape"
   width="210mm"
   height="297mm"
   viewBox="0 0 210 297"
   version="1.1"
   id="svg1259"
   inkscape:version="1.0.2 (e86c870879, 2021-01-15)"
   sodipodi:docname="ishowernight.svg">
  <defs
     id="defs1253" />
  <sodipodi:namedview
     id="base"
     pagecolor="#ffffff"
     bordercolor="#666666"
     borderopacity="1.0"
     inkscape:pageopacity="0.0"
     inkscape:pageshadow="2"
     inkscape:zoom="0.35"
     inkscape:cx="400"
     inkscape:cy="560"
     inkscape:document-units="mm"
     inkscape:current-layer="layer1"
     inkscape:document-rotation="0"
     showgrid="false"
     inkscape:window-width="1267"
     inkscape:window-height="1041"
     inkscape:window-x="26"
     inkscape:window-y="0"
     inkscape:window-maximized="0" />
  <metadata
     id="metadata1256">
    <rdf:RDF>
      <cc:Work
         rdf:about="">
        <dc:format>image/svg+xml</dc:format>
        <dc:type
           rdf:resource="http://purl.org/dc/dcmitype/StillImage" />
        <dc:title></dc:title>
      </cc:Work>
    </rdf:RDF>
  </metadata>
  <g
     inkscape:label="Layer 1"
     inkscape:groupmode="layer"
     id="layer1">
    <g
       id="g312"
       transform="matrix(0.55171261,0,0,-0.55171261,167.27934,177.22571)">
      <path
         d="m 0,0 10.532,-0.004 c 27.28,0.295 49.465,22.693 49.465,49.953 0,27.566 -22.438,49.993 -50.017,49.993 -1.179,0 -2.438,-0.077 -3.516,-0.151 -2.651,-0.187 -5.273,0.696 -7.276,2.449 -2.003,1.752 -3.226,4.231 -3.396,6.886 -2.893,45.097 -40.598,80.423 -85.84,80.423 -30.338,0 -57.857,-15.51 -73.614,-41.489 -1.594,-2.63 -4.311,-4.38 -7.365,-4.745 -3.056,-0.359 -6.106,0.697 -8.275,2.878 -5.221,5.25 -12.174,8.141 -19.576,8.141 -15.225,0 -27.611,-12.386 -27.611,-27.611 0,-4.344 0.986,-8.507 2.93,-12.374 1.527,-3.037 1.407,-6.642 -0.32,-9.571 -1.726,-2.928 -4.823,-4.778 -8.22,-4.913 -26.862,-1.06 -47.904,-22.965 -47.904,-49.867 0,-27.521 22.302,-49.911 49.716,-49.911 h 10.284 z M 10.576,-20.004 -0.008,-20 l -230.279,0.087 c -38.442,0 -69.716,31.361 -69.716,69.911 0,33.276 22.986,61.093 54.278,68.168 -0.508,2.798 -0.764,5.655 -0.764,8.557 0,26.253 21.358,47.611 47.611,47.611 8.721,0 17.078,-2.326 24.369,-6.687 19.983,26.425 50.814,41.902 84.461,41.902 52.585,0 96.91,-38.729 104.778,-89.766 36.402,-2.449 65.267,-32.834 65.267,-69.834 0,-38.196 -31.097,-69.577 -69.319,-69.952 -0.033,-0.001 -0.068,-0.001 -0.102,-0.001"
         style="fill:#000000;fill-opacity:1;fill-rule:nonzero;stroke:none"
         id="path314" />
    </g>
    <g
       id="g316"
       transform="matrix(0.55171261,0,0,-0.55171261,87.255955,247.21189)">
      <path
         d="m 0,0 c -2.561,0 -5.122,0.978 -7.075,2.933 -3.903,3.907 -3.9,10.239 0.008,14.141 l 25.042,25.017 c 3.907,3.903 10.239,3.9 14.142,-0.007 3.903,-3.907 3.9,-10.239 -0.008,-14.142 L 7.067,2.926 C 5.115,0.976 2.557,0 0,0"
         style="fill:#000000;fill-opacity:1;fill-rule:nonzero;stroke:none"
         id="path318" />
    </g>
    <g
       id="g320"
       transform="matrix(0.55171261,0,0,-0.55171261,39.256957,215.76426)">
      <path
         d="m 0,0 c -2.561,0 -5.122,0.978 -7.075,2.933 -3.903,3.907 -3.9,10.238 0.008,14.141 L 8.725,32.851 c 3.907,3.903 10.238,3.9 14.142,-0.007 3.903,-3.907 3.9,-10.239 -0.008,-14.142 L 7.067,2.926 C 5.115,0.976 2.558,0 0,0"
         style="fill:#000000;fill-opacity:1;fill-rule:nonzero;stroke:none"
         id="path322" />
    </g>
    <g
       id="g324"
       transform="matrix(0.55171261,0,0,-0.55171261,115.94502,215.76426)">
      <path
         d="m 0,0 c -2.561,0 -5.122,0.978 -7.075,2.933 -3.903,3.907 -3.9,10.238 0.008,14.141 L 8.725,32.851 c 3.907,3.903 10.238,3.9 14.142,-0.007 3.903,-3.907 3.9,-10.239 -0.008,-14.142 L 7.067,2.926 C 5.115,0.976 2.558,0 0,0"
         style="fill:#000000;fill-opacity:1;fill-rule:nonzero;stroke:none"
         id="path326" />
    </g>
    <g
       id="g328"
       transform="matrix(0.55171261,0,0,-0.55171261,140.77208,229.64702)">
      <path
         d="m 0,0 c -2.562,0 -5.123,0.978 -7.076,2.934 -3.903,3.907 -3.898,10.239 0.01,14.141 l 40.992,40.94 c 3.907,3.903 10.239,3.899 14.142,-0.009 3.903,-3.907 3.898,-10.239 -0.009,-14.142 L 7.066,2.925 C 5.114,0.975 2.557,0 0,0"
         style="fill:#000000;fill-opacity:1;fill-rule:nonzero;stroke:none"
         id="path330" />
    </g>
    <g
       id="g332"
       transform="matrix(0.55171261,0,0,-0.55171261,57.463474,235.71585)">
      <path
         d="m 0,0 c -2.561,0 -5.122,0.978 -7.075,2.933 -3.903,3.907 -3.9,10.238 0.008,14.141 l 51.992,51.94 c 3.907,3.903 10.239,3.9 14.142,-0.007 C 62.97,65.1 62.967,58.769 59.06,54.865 L 7.067,2.926 C 5.115,0.976 2.557,0 0,0"
         style="fill:#000000;fill-opacity:1;fill-rule:nonzero;stroke:none"
         id="path334" />
    </g>
  </g>
</svg>
