<?xml version="1.0" encoding="UTF-8" standalone="no"?>
<svg
   xmlns:dc="http://purl.org/dc/elements/1.1/"
   xmlns:cc="http://creativecommons.org/ns#"
   xmlns:rdf="http://www.w3.org/1999/02/22-rdf-syntax-ns#"
   xmlns:svg="http://www.w3.org/2000/svg"
   xmlns="http://www.w3.org/2000/svg"
   xmlns:sodipodi="http://sodipodi.sourceforge.net/DTD/sodipodi-0.dtd"
   xmlns:inkscape="http://www.inkscape.org/namespaces/inkscape"
   width="210mm"
   height="297mm"
   viewBox="0 0 210 297"
   version="1.1"
   id="svg1071"
   inkscape:version="1.0.2 (e86c870879, 2021-01-15)"
   sodipodi:docname="lightrainday.svg">
  <defs
     id="defs1065" />
  <sodipodi:namedview
     id="base"
     pagecolor="#ffffff"
     bordercolor="#666666"
     borderopacity="1.0"
     inkscape:pageopacity="0.0"
     inkscape:pageshadow="2"
     inkscape:zoom="0.35"
     inkscape:cx="400"
     inkscape:cy="560"
     inkscape:document-units="mm"
     inkscape:current-layer="layer1"
     inkscape:document-rotation="0"
     showgrid="false"
     inkscape:window-width="1267"
     inkscape:window-height="1041"
     inkscape:window-x="182"
     inkscape:window-y="0"
     inkscape:window-maximized="0" />
  <metadata
     id="metadata1068">
    <rdf:RDF>
      <cc:Work
         rdf:about="">
        <dc:format>image/svg+xml</dc:format>
        <dc:type
           rdf:resource="http://purl.org/dc/dcmitype/StillImage" />
        <dc:title></dc:title>
      </cc:Work>
    </rdf:RDF>
  </metadata>
  <g
     inkscape:label="Layer 1"
     inkscape:groupmode="layer"
     id="layer1">
    <g
       id="g96"
       transform="matrix(0.50014982,0,0,-0.50014982,150.72678,135.14588)">
      <path
         d="m 0,0 c -2.516,0 -5.026,0.993 -6.895,2.962 -3.61,3.807 -3.452,9.819 0.355,13.43 14.49,13.746 22.471,32.311 22.471,52.275 0,39.722 -32.317,72.038 -72.038,72.038 -34.889,0 -64.702,-24.873 -70.889,-59.142 -0.933,-5.163 -5.877,-8.592 -11.036,-7.661 -5.164,0.932 -8.594,5.873 -7.661,11.036 7.821,43.323 45.498,74.767 89.586,74.767 50.198,0 91.038,-40.839 91.038,-91.038 C 34.931,43.438 24.847,19.977 6.536,2.608 4.699,0.865 2.347,0 0,0"
         style="fill:#000000;fill-opacity:1;fill-rule:nonzero;stroke:none"
         id="path98" />
    </g>
    <g
       id="g100"
       transform="matrix(0.50014982,0,0,-0.50014982,108.58237,51.284317)">
      <path
         d="m 0,0 c -4.37,0 -8.304,3.033 -9.272,7.477 l -10.019,45.92 c -1.119,5.126 2.13,10.188 7.256,11.307 5.136,1.119 10.189,-2.132 11.306,-7.257 L 9.29,11.527 C 10.409,6.401 7.16,1.339 2.034,0.22 1.352,0.071 0.67,0 0,0"
         style="fill:#000000;fill-opacity:1;fill-rule:nonzero;stroke:none"
         id="path102" />
    </g>
    <g
       id="g104"
       transform="matrix(0.50014982,0,0,-0.50014982,178.41917,95.686318)">
      <path
         d="m 0,0 c -4.37,0 -8.304,3.033 -9.272,7.477 -1.12,5.126 2.129,10.188 7.255,11.307 l 48.851,10.657 c 5.137,1.12 10.189,-2.131 11.307,-7.256 1.119,-5.126 -2.13,-10.188 -7.256,-11.307 L 2.034,0.22 C 1.352,0.071 0.67,0 0,0"
         style="fill:#000000;fill-opacity:1;fill-rule:nonzero;stroke:none"
         id="path106" />
    </g>
    <g
       id="g108"
       transform="matrix(0.50014982,0,0,-0.50014982,152.84757,59.301619)">
      <path
         d="m 0,0 c -1.757,0 -3.534,0.486 -5.123,1.506 -4.415,2.834 -5.697,8.711 -2.863,13.126 l 26.808,41.769 c 2.834,4.416 8.71,5.698 13.127,2.864 4.415,-2.834 5.697,-8.711 2.864,-13.126 L 8.004,4.37 C 6.189,1.542 3.127,0 0,0"
         style="fill:#000000;fill-opacity:1;fill-rule:nonzero;stroke:none"
         id="path110" />
    </g>
    <g
       id="g112"
       transform="matrix(0.50014982,0,0,-0.50014982,74.450534,76.405392)">
      <path
         d="m 0,0 c -1.757,0 -3.534,0.486 -5.122,1.506 l -41.77,26.808 c -4.416,2.834 -5.698,8.711 -2.864,13.126 2.834,4.416 8.711,5.698 13.126,2.864 L 5.14,17.496 C 9.556,14.662 10.838,8.785 8.004,4.37 6.189,1.542 3.127,0 0,0"
         style="fill:#000000;fill-opacity:1;fill-rule:nonzero;stroke:none"
         id="path114" />
    </g>
    <g
       id="g116"
       transform="matrix(0.50014982,0,0,-0.50014982,190.35341,151.2137)">
      <path
         d="m 0,0 c -1.757,0 -3.534,0.486 -5.123,1.506 l -41.769,26.808 c -4.415,2.834 -5.697,8.711 -2.863,13.126 2.834,4.416 8.71,5.699 13.127,2.864 L 5.141,17.496 C 9.556,14.662 10.838,8.785 8.004,4.37 6.189,1.542 3.127,0 0,0"
         style="fill:#000000;fill-opacity:1;fill-rule:nonzero;stroke:none"
         id="path118" />
    </g>
    <g
       id="g120"
       transform="matrix(0.50014982,0,0,-0.50014982,46.212079,126.15439)">
      <path
         d="m 0,0 c -13.55,0 -24.574,-11.024 -24.574,-24.574 0,-3.866 0.877,-7.572 2.607,-11.012 1.451,-2.886 1.337,-6.31 -0.304,-9.093 -1.639,-2.782 -4.581,-4.54 -7.808,-4.668 -24.101,-0.951 -42.979,-20.641 -42.979,-44.826 0,-24.576 20.037,-44.702 44.665,-44.865 l 218.159,0.005 c 24.401,0.241 44.33,20.365 44.33,44.86 0,24.743 -20.131,44.874 -44.874,44.874 -0.926,0 -1.928,-0.04 -3.156,-0.125 -2.53,-0.18 -5.01,0.663 -6.912,2.327 -1.903,1.665 -3.063,4.019 -3.225,6.542 -2.607,40.629 -36.574,72.454 -77.33,72.454 -27.331,0 -52.123,-13.971 -66.317,-37.374 -1.515,-2.498 -4.095,-4.16 -6.997,-4.506 -2.903,-0.345 -5.802,0.663 -7.861,2.733 C 12.775,-2.574 6.587,0 0,0 m -28.455,-158.038 c -35.099,0.231 -63.603,28.881 -63.603,63.865 0,30.256 20.771,55.569 49.11,62.18 -0.417,2.429 -0.626,4.905 -0.626,7.419 C -43.574,-0.547 -24.027,19 0,19 c 7.846,0 15.372,-2.059 21.965,-5.921 18.193,23.858 46.142,37.82 76.634,37.82 47.744,0 88.006,-35.079 95.309,-81.369 33.041,-2.406 59.188,-30.058 59.188,-63.703 0,-34.869 -28.368,-63.516 -63.237,-63.86 z"
         style="fill:#000000;fill-opacity:1;fill-rule:nonzero;stroke:none"
         id="path122" />
    </g>
    <g
       id="g124"
       transform="matrix(0.50014982,0,0,-0.50014982,73.663656,254.84239)">
      <path
         d="m 0,0 c -2.433,0 -4.865,0.929 -6.721,2.786 -3.708,3.712 -3.705,9.727 0.007,13.435 l 22.688,22.664 c 3.712,3.708 9.726,3.705 13.434,-0.006 3.708,-3.712 3.705,-9.727 -0.007,-13.435 L 6.714,2.779 C 4.859,0.926 2.43,0 0,0"
         style="fill:#000000;fill-opacity:1;fill-rule:nonzero;stroke:none"
         id="path126" />
    </g>
    <g
       id="g128"
       transform="matrix(0.50014982,0,0,-0.50014982,34.241695,229.01435)">
      <path
         d="m 0,0 c -2.433,0 -4.865,0.929 -6.721,2.786 -3.708,3.712 -3.705,9.727 0.007,13.435 L 7.594,30.514 c 3.711,3.707 9.725,3.705 13.434,-0.007 3.708,-3.712 3.705,-9.727 -0.007,-13.435 L 6.714,2.779 C 4.859,0.926 2.43,0 0,0"
         style="fill:#000000;fill-opacity:1;fill-rule:nonzero;stroke:none"
         id="path130" />
    </g>
    <g
       id="g132"
       transform="matrix(0.50014982,0,0,-0.50014982,97.22641,229.01435)">
      <path
         d="m 0,0 c -2.433,0 -4.865,0.928 -6.721,2.786 -3.708,3.712 -3.705,9.727 0.007,13.435 L 7.593,30.514 c 3.712,3.707 9.726,3.705 13.434,-0.007 3.708,-3.712 3.705,-9.727 -0.006,-13.435 L 6.714,2.779 C 4.859,0.927 2.43,0 0,0"
         style="fill:#000000;fill-opacity:1;fill-rule:nonzero;stroke:none"
         id="path134" />
    </g>
    <g
       id="g136"
       transform="matrix(0.50014982,0,0,-0.50014982,117.61727,240.41641)">
      <path
         d="m 0,0 c -2.434,0 -4.866,0.929 -6.722,2.787 -3.708,3.712 -3.704,9.727 0.009,13.435 l 37.138,37.09 c 3.712,3.708 9.726,3.704 13.434,-0.008 3.708,-3.713 3.704,-9.728 -0.008,-13.435 L 6.713,2.778 C 4.858,0.926 2.43,0 0,0"
         style="fill:#000000;fill-opacity:1;fill-rule:nonzero;stroke:none"
         id="path138" />
    </g>
    <g
       id="g140"
       transform="matrix(0.50014982,0,0,-0.50014982,49.194921,245.4008)">
      <path
         d="m 0,0 c -2.433,0 -4.865,0.929 -6.721,2.786 -3.708,3.712 -3.705,9.727 0.007,13.435 L 40.39,63.277 c 3.712,3.708 9.726,3.704 13.434,-0.006 3.708,-3.712 3.705,-9.728 -0.007,-13.436 L 6.714,2.779 C 4.859,0.926 2.43,0 0,0"
         style="fill:#000000;fill-opacity:1;fill-rule:nonzero;stroke:none"
         id="path142" />
    </g>
  </g>
</svg>
