<?xml version="1.0" encoding="UTF-8" standalone="no"?>
<svg
   xmlns:dc="http://purl.org/dc/elements/1.1/"
   xmlns:cc="http://creativecommons.org/ns#"
   xmlns:rdf="http://www.w3.org/1999/02/22-rdf-syntax-ns#"
   xmlns:svg="http://www.w3.org/2000/svg"
   xmlns="http://www.w3.org/2000/svg"
   xmlns:sodipodi="http://sodipodi.sourceforge.net/DTD/sodipodi-0.dtd"
   xmlns:inkscape="http://www.inkscape.org/namespaces/inkscape"
   width="210mm"
   height="297mm"
   viewBox="0 0 210 297"
   version="1.1"
   id="svg1181"
   inkscape:version="1.0.2 (e86c870879, 2021-01-15)"
   sodipodi:docname="lightrainnight.svg">
  <defs
     id="defs1175" />
  <sodipodi:namedview
     id="base"
     pagecolor="#ffffff"
     bordercolor="#666666"
     borderopacity="1.0"
     inkscape:pageopacity="0.0"
     inkscape:pageshadow="2"
     inkscape:zoom="0.35"
     inkscape:cx="400"
     inkscape:cy="560"
     inkscape:document-units="mm"
     inkscape:current-layer="layer1"
     inkscape:document-rotation="0"
     showgrid="false"
     inkscape:window-width="1267"
     inkscape:window-height="1041"
     inkscape:window-x="208"
     inkscape:window-y="0"
     inkscape:window-maximized="0" />
  <metadata
     id="metadata1178">
    <rdf:RDF>
      <cc:Work
         rdf:about="">
        <dc:format>image/svg+xml</dc:format>
        <dc:type
           rdf:resource="http://purl.org/dc/dcmitype/StillImage" />
        <dc:title></dc:title>
      </cc:Work>
    </rdf:RDF>
  </metadata>
  <g
     inkscape:label="Layer 1"
     inkscape:groupmode="layer"
     id="layer1">
    <g
       id="g152"
       transform="matrix(0.51134327,0,0,-0.51134327,48.254787,122.87499)">
      <path
         d="m 0,0 c -13.574,0 -24.618,-11.044 -24.618,-24.619 0,-3.872 0.879,-7.584 2.612,-11.032 1.527,-3.037 1.406,-6.642 -0.32,-9.571 -1.727,-2.928 -4.823,-4.778 -8.22,-4.913 -24.297,-0.959 -43.33,-20.811 -43.33,-45.194 0,-24.778 20.201,-45.069 45.032,-45.233 l 221.641,0.004 c 24.598,0.243 44.689,20.533 44.689,45.229 0,24.947 -20.296,45.243 -45.242,45.243 -0.928,0 -1.938,-0.04 -3.181,-0.127 -2.665,-0.185 -5.274,0.698 -7.276,2.45 -2.003,1.752 -3.225,4.23 -3.395,6.886 C 175.755,0.218 141.397,32.409 100.174,32.409 72.528,32.409 47.452,18.277 33.095,-5.395 31.5,-8.024 28.783,-9.774 25.729,-10.138 22.677,-10.5 19.624,-9.441 17.454,-7.26 12.799,-2.578 6.6,0 0,0 m -28.91,-160.562 c -35.852,0.236 -64.966,29.5 -64.966,65.233 0,30.79 21.062,56.57 49.845,63.437 -0.391,2.384 -0.587,4.811 -0.587,7.273 C -44.618,-0.016 -24.603,20 0,20 c 7.93,0 15.539,-2.053 22.227,-5.908 18.552,24.176 46.962,38.317 77.947,38.317 48.584,0 89.57,-35.631 97.133,-82.69 33.617,-2.593 60.179,-30.777 60.179,-65.048 0,-35.616 -28.975,-64.877 -64.59,-65.229 z"
         style="fill:#000000;fill-opacity:1;fill-rule:nonzero;stroke:none"
         id="path154" />
    </g>
    <g
       id="g156"
       transform="matrix(0.51134327,0,0,-0.51134327,177.76197,145.28798)">
      <path
         d="m 0,0 c -4.267,0 -8.218,2.751 -9.548,7.04 -1.637,5.275 1.314,10.877 6.588,12.514 13.819,4.286 26.483,11.917 36.818,22.036 -20.718,5.212 -39.583,16.331 -54.362,32.274 -19.117,20.621 -29.645,47.474 -29.645,75.61 0,16.816 3.722,33.137 10.874,48.035 -19.75,-1.994 -38.281,-10.347 -52.949,-24.018 -16.855,-15.71 -27.082,-36.966 -28.794,-59.853 -0.411,-5.508 -5.223,-9.647 -10.717,-9.226 -5.507,0.412 -9.638,5.21 -9.226,10.718 2.088,27.919 14.554,53.841 35.101,72.992 20.654,19.25 47.587,29.852 75.836,29.852 2.976,0 6.02,-0.124 9.047,-0.368 3.577,-0.289 6.725,-2.471 8.249,-5.719 1.525,-3.249 1.192,-7.065 -0.872,-10 -10.827,-15.4 -16.549,-33.524 -16.549,-52.413 0,-23.078 8.634,-45.101 24.312,-62.014 15.595,-16.822 36.725,-27.097 59.496,-28.932 3.576,-0.289 6.725,-2.471 8.249,-5.719 1.525,-3.249 1.192,-7.065 -0.872,-10 C 46.92,22.731 26.297,7.688 2.966,0.451 1.979,0.146 0.98,0 0,0"
         style="fill:#000000;fill-opacity:1;fill-rule:nonzero;stroke:none"
         id="path158" />
    </g>
    <g
       id="g160"
       transform="matrix(0.51134327,0,0,-0.51134327,79.593529,257.9076)">
      <path
         d="m 0,0 c -2.562,0 -5.122,0.978 -7.074,2.933 -3.904,3.907 -3.901,10.239 0.007,14.141 l 23.049,23.027 c 3.908,3.903 10.241,3.9 14.142,-0.007 3.903,-3.907 3.9,-10.24 -0.007,-14.142 L 7.067,2.926 C 5.115,0.976 2.558,0 0,0"
         style="fill:#000000;fill-opacity:1;fill-rule:nonzero;stroke:none"
         id="path162" />
    </g>
    <g
       id="g164"
       transform="matrix(0.51134327,0,0,-0.51134327,38.645112,231.0795)">
      <path
         d="m 0,0 c -2.562,0 -5.122,0.978 -7.075,2.933 -3.903,3.907 -3.9,10.239 0.008,14.142 L 7.469,31.596 c 3.907,3.903 10.239,3.899 14.142,-0.008 3.903,-3.907 3.9,-10.239 -0.007,-14.143 L 7.067,2.925 C 5.115,0.975 2.558,0 0,0"
         style="fill:#000000;fill-opacity:1;fill-rule:nonzero;stroke:none"
         id="path166" />
    </g>
    <g
       id="g168"
       transform="matrix(0.51134327,0,0,-0.51134327,104.06811,231.0795)">
      <path
         d="m 0,0 c -2.562,0 -5.121,0.978 -7.074,2.933 -3.904,3.907 -3.901,10.238 0.007,14.141 L 7.468,31.595 c 3.907,3.903 10.238,3.9 14.141,-0.007 C 25.513,27.681 25.51,21.35 21.603,17.446 L 7.067,2.926 C 5.115,0.976 2.558,0 0,0"
         style="fill:#000000;fill-opacity:1;fill-rule:nonzero;stroke:none"
         id="path170" />
    </g>
    <g
       id="g172"
       transform="matrix(0.51134327,0,0,-0.51134327,125.24789,242.9233)">
      <path
         d="m 0,0 c -2.562,0 -5.123,0.978 -7.075,2.934 -3.904,3.907 -3.9,10.239 0.009,14.141 l 37.731,37.683 c 3.908,3.904 10.241,3.899 14.142,-0.009 C 48.71,50.842 48.706,44.51 44.798,40.607 L 7.066,2.925 C 5.114,0.975 2.557,0 0,0"
         style="fill:#000000;fill-opacity:1;fill-rule:nonzero;stroke:none"
         id="path174" />
    </g>
    <g
       id="g176"
       transform="matrix(0.51134327,0,0,-0.51134327,54.177164,248.10064)">
      <path
         d="m 0,0 c -2.562,0 -5.122,0.978 -7.074,2.933 -3.904,3.907 -3.901,10.239 0.007,14.141 l 47.856,47.808 c 3.907,3.903 10.24,3.9 14.142,-0.007 3.903,-3.907 3.9,-10.239 -0.007,-14.142 L 7.067,2.926 C 5.115,0.976 2.558,0 0,0"
         style="fill:#000000;fill-opacity:1;fill-rule:nonzero;stroke:none"
         id="path178" />
    </g>
  </g>
</svg>
