<?xml version="1.0" encoding="UTF-8" standalone="no"?>
<svg
   xmlns:dc="http://purl.org/dc/elements/1.1/"
   xmlns:cc="http://creativecommons.org/ns#"
   xmlns:rdf="http://www.w3.org/1999/02/22-rdf-syntax-ns#"
   xmlns:svg="http://www.w3.org/2000/svg"
   xmlns="http://www.w3.org/2000/svg"
   xmlns:sodipodi="http://sodipodi.sourceforge.net/DTD/sodipodi-0.dtd"
   xmlns:inkscape="http://www.inkscape.org/namespaces/inkscape"
   width="210mm"
   height="297mm"
   viewBox="0 0 210 297"
   version="1.1"
   id="svg1335"
   inkscape:version="1.0.2 (e86c870879, 2021-01-15)"
   sodipodi:docname="lightsnownight.svg">
  <defs
     id="defs1329" />
  <sodipodi:namedview
     id="base"
     pagecolor="#ffffff"
     bordercolor="#666666"
     borderopacity="1.0"
     inkscape:pageopacity="0.0"
     inkscape:pageshadow="2"
     inkscape:zoom="0.35"
     inkscape:cx="400"
     inkscape:cy="560"
     inkscape:document-units="mm"
     inkscape:current-layer="layer1"
     inkscape:document-rotation="0"
     showgrid="false"
     inkscape:window-width="1267"
     inkscape:window-height="1041"
     inkscape:window-x="52"
     inkscape:window-y="0"
     inkscape:window-maximized="0" />
  <metadata
     id="metadata1332">
    <rdf:RDF>
      <cc:Work
         rdf:about="">
        <dc:format>image/svg+xml</dc:format>
        <dc:type
           rdf:resource="http://purl.org/dc/dcmitype/StillImage" />
        <dc:title></dc:title>
      </cc:Work>
    </rdf:RDF>
  </metadata>
  <g
     inkscape:label="Layer 1"
     inkscape:groupmode="layer"
     id="layer1">
    <g
       id="g336"
       transform="matrix(0.54972326,0,0,-0.54972326,163.6587,166.24003)">
      <path
         d="m 0,0 10.531,-0.004 c 27.281,0.295 49.466,22.694 49.466,49.953 0,27.566 -22.437,49.993 -50.017,49.993 -1.178,0 -2.438,-0.077 -3.514,-0.151 -2.643,-0.183 -5.274,0.696 -7.278,2.449 -2.002,1.752 -3.225,4.231 -3.395,6.886 -2.894,45.097 -40.599,80.423 -85.84,80.423 -30.339,0 -57.858,-15.51 -73.614,-41.489 -1.595,-2.63 -4.312,-4.38 -7.366,-4.745 -3.052,-0.362 -6.106,0.697 -8.275,2.878 -5.221,5.25 -12.173,8.141 -19.575,8.141 -15.225,0 -27.611,-12.386 -27.611,-27.611 0,-4.344 0.986,-8.507 2.93,-12.374 1.527,-3.037 1.406,-6.642 -0.32,-9.571 -1.727,-2.928 -4.823,-4.778 -8.22,-4.913 -26.862,-1.06 -47.905,-22.965 -47.905,-49.867 0,-27.521 22.303,-49.911 49.717,-49.911 h 10.283 z M 10.576,-20.004 -0.008,-20 l -230.278,0.087 c -38.442,0 -69.717,31.361 -69.717,69.911 0,33.276 22.986,61.093 54.279,68.168 -0.508,2.798 -0.764,5.655 -0.764,8.557 0,26.253 21.358,47.611 47.611,47.611 8.72,0 17.077,-2.326 24.369,-6.687 19.982,26.425 50.814,41.902 84.461,41.902 52.584,0 96.909,-38.729 104.778,-89.766 36.403,-2.449 65.266,-32.834 65.266,-69.834 0,-38.196 -31.097,-69.577 -69.318,-69.952 -0.034,-0.001 -0.069,-0.001 -0.103,-0.001"
         style="fill:#000000;fill-opacity:1;fill-rule:nonzero;stroke:none"
         id="path338" />
    </g>
    <g
       id="g340"
       transform="matrix(0.54972326,0,0,-0.54972326,50.415444,251.42889)">
      <path
         d="m 0,0 c -2.561,0 -5.122,0.978 -7.075,2.933 -3.903,3.907 -3.9,10.238 0.008,14.141 l 61.903,61.841 c 3.907,3.902 10.239,3.9 14.142,-0.007 3.903,-3.907 3.9,-10.238 -0.007,-14.141 L 7.067,2.926 C 5.115,0.976 2.558,0 0,0"
         style="fill:#000000;fill-opacity:1;fill-rule:nonzero;stroke:none"
         id="path342" />
    </g>
    <g
       id="g344"
       transform="matrix(0.54972326,0,0,-0.54972326,84.427975,251.4461)">
      <path
         d="m 0,0 c -2.561,0 -5.122,0.978 -7.075,2.933 l -61.841,61.903 c -3.903,3.907 -3.899,10.238 0.008,14.142 3.908,3.902 10.239,3.9 14.142,-0.007 L 7.075,17.067 C 10.978,13.16 10.975,6.829 7.067,2.926 5.115,0.976 2.558,0 0,0"
         style="fill:#000000;fill-opacity:1;fill-rule:nonzero;stroke:none"
         id="path346" />
    </g>
    <g
       id="g348"
       transform="matrix(0.54972326,0,0,-0.54972326,94.916476,234.35794)">
      <path
         d="m 0,0 h -0.005 l -100,-0.029 c -5.523,0.003 -9.998,4.497 -9.995,10.019 0.003,5.522 4.479,10.01 10,10.01 h 0.005 l 100,-0.104 C 5.528,19.893 10.003,15.466 10,9.943 9.997,4.423 5.52,0 0,0"
         style="fill:#000000;fill-opacity:1;fill-rule:nonzero;stroke:none"
         id="path350" />
    </g>
    <g
       id="g352"
       transform="matrix(0.54972326,0,0,-0.54972326,67.41635,261.84411)">
      <path
         d="M 0,0 H -0.005 C -5.528,0 -10.003,4.416 -10,9.938 l 0.051,100.034 c 0.003,5.521 4.48,10.028 10,10.028 h 0.005 c 5.523,0 9.998,-4.549 9.995,-10.071 L 10,9.962 C 9.997,4.44 5.52,0 0,0"
         style="fill:#000000;fill-opacity:1;fill-rule:nonzero;stroke:none"
         id="path354" />
    </g>
    <g
       id="g356"
       transform="matrix(0.54972326,0,0,-0.54972326,126.66673,227.06554)">
      <path
         d="m 0,0 c -3.445,0 -6.797,1.781 -8.653,4.974 -2.778,4.773 -1.16,10.894 3.615,13.672 l 60.506,35.199 c 4.774,2.781 10.895,1.159 13.672,-3.616 2.777,-4.773 1.159,-10.894 -3.616,-13.671 L 5.019,1.358 C 3.437,0.437 1.707,0 0,0"
         style="fill:#000000;fill-opacity:1;fill-rule:nonzero;stroke:none"
         id="path358" />
    </g>
    <g
       id="g360"
       transform="matrix(0.54972326,0,0,-0.54972326,160.1977,226.56843)">
      <path
         d="m 0,0 c -1.611,0 -3.245,0.391 -4.762,1.213 l -61.523,33.391 c -4.854,2.634 -6.653,8.705 -4.019,13.559 2.634,4.854 8.703,6.652 13.56,4.019 L 4.779,18.791 C 9.633,16.156 11.433,10.086 8.798,5.231 6.986,1.894 3.549,0 0,0"
         style="fill:#000000;fill-opacity:1;fill-rule:nonzero;stroke:none"
         id="path362" />
    </g>
    <g
       id="g364"
       transform="matrix(0.54972326,0,0,-0.54972326,143.28244,236.55683)">
      <path
         d="M 0,0 H -0.005 C -5.528,0 -10.003,4.71 -10,10.232 l 0.035,68.798 c 0.003,5.522 4.48,9.97 10,9.97 H 0.04 c 5.523,0 9.998,-4.343 9.995,-9.866 L 10,10.153 C 9.997,4.632 5.521,0 0,0"
         style="fill:#000000;fill-opacity:1;fill-rule:nonzero;stroke:none"
         id="path366" />
    </g>
  </g>
</svg>
