<?xml version="1.0" encoding="UTF-8" standalone="no"?>
<svg
   xmlns:dc="http://purl.org/dc/elements/1.1/"
   xmlns:cc="http://creativecommons.org/ns#"
   xmlns:rdf="http://www.w3.org/1999/02/22-rdf-syntax-ns#"
   xmlns:svg="http://www.w3.org/2000/svg"
   xmlns="http://www.w3.org/2000/svg"
   xmlns:sodipodi="http://sodipodi.sourceforge.net/DTD/sodipodi-0.dtd"
   xmlns:inkscape="http://www.inkscape.org/namespaces/inkscape"
   width="210mm"
   height="297mm"
   viewBox="0 0 210 297"
   version="1.1"
   id="svg359"
   inkscape:version="1.0.2 (e86c870879, 2021-01-15)"
   sodipodi:docname="mcloudyday.svg">
  <defs
     id="defs353" />
  <sodipodi:namedview
     id="base"
     pagecolor="#ffffff"
     bordercolor="#666666"
     borderopacity="1.0"
     inkscape:pageopacity="0.0"
     inkscape:pageshadow="2"
     inkscape:zoom="0.35"
     inkscape:cx="400"
     inkscape:cy="560"
     inkscape:document-units="mm"
     inkscape:current-layer="layer1"
     inkscape:document-rotation="0"
     showgrid="false"
     inkscape:window-width="1267"
     inkscape:window-height="1041"
     inkscape:window-x="182"
     inkscape:window-y="0"
     inkscape:window-maximized="0" />
  <metadata
     id="metadata356">
    <rdf:RDF>
      <cc:Work
         rdf:about="">
        <dc:format>image/svg+xml</dc:format>
        <dc:type
           rdf:resource="http://purl.org/dc/dcmitype/StillImage" />
        <dc:title></dc:title>
      </cc:Work>
    </rdf:RDF>
  </metadata>
  <g
     inkscape:label="Layer 1"
     inkscape:groupmode="layer"
     id="layer1">
    <path
       fill="#010202"
       d="m 149.99166,156.98428 c -1.2716,0 -2.53245,-0.55209 -3.39667,-1.61636 -1.52218,-1.87446 -1.23654,-4.62806 0.63791,-6.15028 8.22756,-6.68125 12.94617,-16.58428 12.94617,-27.16939 0,-19.28731 -15.69124,-34.978544 -34.97853,-34.978544 -17.84048,0 -32.784052,13.347944 -34.760559,31.048354 -0.267941,2.39988 -2.429746,4.12699 -4.83044,3.86036 -2.39967,-0.26815 -4.128132,-2.43083 -3.859976,-4.8307 2.471191,-22.132486 21.150865,-38.822645 43.450975,-38.822645 24.10921,0 43.72315,19.614144 43.72315,43.723175 0,13.23115 -5.89667,25.60834 -16.17844,33.95759 -0.8104,0.6582 -1.78521,0.97844 -2.75359,0.97844 z"
       id="path28"
       style="stroke-width:0.437231" />
    <path
       fill="#010202"
       d="m 125.15783,71.286675 c -2.41461,0 -4.37231,-1.957508 -4.37231,-4.372315 V 43.303859 c 0,-2.414806 1.9577,-4.372314 4.37231,-4.372314 2.41461,0 4.37231,1.957508 4.37231,4.372314 V 66.91436 c 0,2.414807 -1.9577,4.372315 -4.37231,4.372315 z"
       id="path30"
       style="stroke-width:0.437231" />
    <path
       fill="#010202"
       d="M 70.06665,126.37785 H 46.456152 c -2.414788,0 -4.372317,-1.95749 -4.372317,-4.37232 0,-2.41478 1.957529,-4.37231 4.372317,-4.37231 H 70.06665 c 2.41484,0 4.37231,1.95753 4.37231,4.37231 0,2.41483 -1.95747,4.37232 -4.37231,4.37232 z"
       id="path32"
       style="stroke-width:0.437231" />
    <path
       fill="#010202"
       d="M 203.8595,126.37785 H 180.249 c -2.41461,0 -4.37231,-1.95749 -4.37231,-4.37232 0,-2.41478 1.9577,-4.37231 4.37231,-4.37231 h 23.6105 c 2.41461,0 4.37231,1.95753 4.37231,4.37231 0,2.41483 -1.9577,4.37232 -4.37231,4.37232 z"
       id="path34"
       style="stroke-width:0.437231" />
    <path
       fill="#010202"
       d="m 163.87118,87.664497 c -1.11914,0 -2.23783,-0.426768 -3.09179,-1.280524 -1.70753,-1.707507 -1.70753,-4.47607 0,-6.18358 l 16.93716,-16.937169 c 1.70792,-1.707508 4.47564,-1.707508 6.18359,0 1.70748,1.707507 1.70748,4.47607 0,6.183582 l -16.93716,16.937167 c -0.85396,0.853752 -1.97265,1.280524 -3.0918,1.280524 z"
       id="path36"
       style="stroke-width:0.437231" />
    <path
       fill="#010202"
       d="m 86.444464,87.664497 c -1.11891,0 -2.238002,-0.426768 -3.091781,-1.280524 L 66.415504,69.446806 c -1.707293,-1.707508 -1.707293,-4.47607 0,-6.183582 1.707525,-1.707508 4.476072,-1.707508 6.183597,0 l 16.937162,16.937169 c 1.70731,1.707506 1.70731,4.476068 0,6.18358 -0.853729,0.853752 -1.972871,1.280524 -3.091799,1.280524 z"
       id="path38"
       style="stroke-width:0.437231" />
    <path
       fill="#010202"
       d="m 180.80835,182.02837 c -1.11915,0 -2.23784,-0.42679 -3.0918,-1.28051 l -16.93716,-16.93718 c -1.70753,-1.70753 -1.70753,-4.47607 0,-6.18358 1.70795,-1.70753 4.47562,-1.70753 6.18359,0 l 16.93716,16.93716 c 1.70753,1.70752 1.70753,4.47607 0,6.1836 -0.85396,0.85372 -1.97265,1.28051 -3.09179,1.28051 z"
       id="path40"
       style="stroke-width:0.437231" />
    <path
       fill="#010202"
       d="M 37.697005,222.56877 C 20.875964,222.45806 7.2146232,208.72682 7.2146232,191.95978 c 0,-14.57039 10.0505528,-26.74966 23.7324008,-29.84661 -0.222464,-1.22393 -0.334089,-2.47285 -0.334089,-3.74227 0,-11.47841 9.338349,-20.81676 20.816943,-20.81676 3.812533,0 7.466869,1.01753 10.655158,2.92421 8.736324,-11.55288 22.216611,-18.31887 36.928789,-18.31887 22.993305,0 42.374525,16.93756 45.813435,39.25644 15.91456,1.07217 28.53534,14.36205 28.53534,30.5439 0,16.7119 -13.59602,30.44202 -30.30819,30.60659 z m 13.732873,-76.27 c -6.656675,0 -12.072356,5.41546 -12.072356,12.07213 0,1.89899 0.431067,3.71945 1.281175,5.41031 0.66761,1.32791 0.61488,2.90414 -0.140051,4.18465 -0.75488,1.28031 -2.108637,2.08944 -3.593911,2.14817 -11.745045,0.46369 -20.945489,10.05952 -20.945489,21.84575 0,11.9769 9.764474,21.78537 21.766566,21.86438 H 143.0113 c 11.89449,-0.11733 21.60668,-9.92481 21.60668,-21.8622 0,-12.05866 -9.81039,-21.86905 -21.86884,-21.86905 -0.4492,0 -0.93764,0.0192 -1.53673,0.061 -1.1571,0.0793 -2.30614,-0.30444 -3.18188,-1.07085 -0.87573,-0.76622 -1.41034,-1.84971 -1.48462,-3.01109 -1.26517,-19.71919 -17.75098,-35.16575 -37.532085,-35.16575 -13.265554,0 -25.297731,6.78094 -32.186263,18.1389 -0.697268,1.14988 -1.885138,1.91482 -3.22053,2.07427 -1.335161,0.15759 -2.669726,-0.30462 -3.618046,-1.2583 -2.283299,-2.29591 -5.322977,-3.56021 -8.559115,-3.56021 z"
       id="path42"
       style="stroke-width:0.437231" />
  </g>
</svg>
