<?xml version="1.0" encoding="UTF-8" standalone="no"?>
<svg
   xmlns:dc="http://purl.org/dc/elements/1.1/"
   xmlns:cc="http://creativecommons.org/ns#"
   xmlns:rdf="http://www.w3.org/1999/02/22-rdf-syntax-ns#"
   xmlns:svg="http://www.w3.org/2000/svg"
   xmlns="http://www.w3.org/2000/svg"
   xmlns:sodipodi="http://sodipodi.sourceforge.net/DTD/sodipodi-0.dtd"
   xmlns:inkscape="http://www.inkscape.org/namespaces/inkscape"
   width="210mm"
   height="297mm"
   viewBox="0 0 210 297"
   version="1.1"
   id="svg409"
   inkscape:version="1.0.2 (e86c870879, 2021-01-15)"
   sodipodi:docname="pcloudynight.svg">
  <defs
     id="defs403" />
  <sodipodi:namedview
     id="base"
     pagecolor="#ffffff"
     bordercolor="#666666"
     borderopacity="1.0"
     inkscape:pageopacity="0.0"
     inkscape:pageshadow="2"
     inkscape:zoom="0.35"
     inkscape:cx="400"
     inkscape:cy="560"
     inkscape:document-units="mm"
     inkscape:current-layer="layer1"
     inkscape:document-rotation="0"
     showgrid="false"
     inkscape:window-width="1267"
     inkscape:window-height="1041"
     inkscape:window-x="208"
     inkscape:window-y="0"
     inkscape:window-maximized="0" />
  <metadata
     id="metadata406">
    <rdf:RDF>
      <cc:Work
         rdf:about="">
        <dc:format>image/svg+xml</dc:format>
        <dc:type
           rdf:resource="http://purl.org/dc/dcmitype/StillImage" />
        <dc:title></dc:title>
      </cc:Work>
    </rdf:RDF>
  </metadata>
  <g
     inkscape:label="Layer 1"
     inkscape:groupmode="layer"
     id="layer1">
    <path
       fill="#010202"
       d="m 31.616846,220.9897 c -18.134704,-0.11937 -32.8629499,-14.92297 -32.8629499,-32.99947 0,-15.70829 10.8352305,-28.83869 25.5860559,-32.17728 -0.239837,-1.31976 -0.360415,-2.66644 -0.360415,-4.03475 0,-12.37484 10.067874,-22.44249 22.442436,-22.44249 4.110744,0 8.050237,1.09676 11.487524,3.15258 9.418833,-12.45513 23.951881,-19.74955 39.812563,-19.74955 24.78877,0 45.68405,18.26038 49.39153,42.32228 17.15744,1.15591 30.76385,15.48367 30.76385,32.92921 0,18.0171 -14.65781,32.81949 -32.67515,32.99692 z m 14.805127,-82.22643 c -7.176538,0 -13.014882,5.8384 -13.014882,13.01493 0,2.04706 0.464921,4.00944 1.38142,5.83284 0.719511,1.43161 0.6629,3.13092 -0.150989,4.51145 -0.81388,1.38028 -2.273549,2.25262 -3.874583,2.31592 -12.662291,0.49989 -22.5814942,10.84513 -22.5814942,23.55182 0,12.91228 10.5268092,23.48673 23.4662222,23.5719 H 145.15581 c 12.82341,-0.12649 23.29407,-10.69989 23.29407,-23.56953 0,-13.00042 -10.57653,-23.57696 -23.57671,-23.57696 -0.48424,0 -1.01087,0.0208 -1.6567,0.0657 -1.24661,0.0861 -2.48628,-0.32845 -3.43041,-1.1545 -0.94412,-0.82603 -1.52047,-1.99417 -1.60056,-3.24623 -1.36393,-21.25919 -19.13775,-37.91207 -40.463447,-37.91207 -14.301082,0 -27.27316,7.31051 -34.700142,19.55572 -0.751706,1.23968 -2.032345,2.06436 -3.471791,2.23603 -1.439919,0.17104 -2.877998,-0.32841 -3.90084,-1.35658 -2.461394,-2.4752 -5.738459,-3.83823 -9.227315,-3.83823 z"
       id="path68"
       style="stroke-width:0.471377" />
    <path
       fill="#010202"
       d="m 172.68767,162.14643 c -2.13685,0 -4.07204,-1.46291 -4.58396,-3.63315 -0.59752,-2.53387 0.97222,-5.07215 3.50635,-5.66968 8.64407,-2.03833 16.47706,-6.47497 22.66662,-12.74533 -10.81449,-2.57096 -20.66926,-8.29541 -28.35356,-16.58436 -9.72028,-10.48537 -15.07348,-24.138517 -15.07348,-38.444432 0,-8.795045 2.00288,-17.324741 5.84616,-25.073247 -10.84395,0.92067 -20.96245,5.526727 -28.83917,13.201119 -8.83466,8.607248 -13.88721,20.126301 -14.22741,32.43533 -0.0723,2.60247 -2.23352,4.67163 -4.84222,4.58165 -2.60225,-0.0718 -4.65349,-2.23976 -4.58165,-4.84225 0.4083,-14.774254 6.47131,-28.598892 17.07226,-38.927312 10.62118,-10.348445 24.63915,-16.047558 39.47096,-16.047558 1.51124,0 3.05934,0.06284 4.60008,0.186892 1.68617,0.135561 3.1703,1.164401 3.88934,2.695692 0.71857,1.531293 0.5616,3.330249 -0.41109,4.714006 -5.59346,7.955651 -8.54971,17.318078 -8.54971,27.075678 0,11.92162 4.4606,23.298452 12.55963,32.035062 8.05622,8.69009 18.97112,13.99818 30.73486,14.94621 1.6857,0.13594 3.16983,1.16487 3.88839,2.69592 0.71857,1.5313 0.56161,3.33028 -0.41108,4.71377 -7.99636,11.37316 -19.81399,19.38475 -33.2754,22.55891 -0.36363,0.0859 -0.72777,0.12703 -1.08592,0.12703 z"
       id="path70"
       style="stroke-width:0.471377" />
  </g>
</svg>
