<?xml version="1.0" encoding="UTF-8" standalone="no"?>
<svg
   xmlns:dc="http://purl.org/dc/elements/1.1/"
   xmlns:cc="http://creativecommons.org/ns#"
   xmlns:rdf="http://www.w3.org/1999/02/22-rdf-syntax-ns#"
   xmlns:svg="http://www.w3.org/2000/svg"
   xmlns="http://www.w3.org/2000/svg"
   xmlns:sodipodi="http://sodipodi.sourceforge.net/DTD/sodipodi-0.dtd"
   xmlns:inkscape="http://www.inkscape.org/namespaces/inkscape"
   width="210mm"
   height="297mm"
   viewBox="0 0 210 297"
   version="1.1"
   id="svg1589"
   inkscape:version="1.0.2 (e86c870879, 2021-01-15)"
   sodipodi:docname="rainsnownight.svg">
  <defs
     id="defs1583" />
  <sodipodi:namedview
     id="base"
     pagecolor="#ffffff"
     bordercolor="#666666"
     borderopacity="1.0"
     inkscape:pageopacity="0.0"
     inkscape:pageshadow="2"
     inkscape:zoom="0.35"
     inkscape:cx="400"
     inkscape:cy="560"
     inkscape:document-units="mm"
     inkscape:current-layer="layer1"
     inkscape:document-rotation="0"
     showgrid="false"
     inkscape:window-width="1267"
     inkscape:window-height="1041"
     inkscape:window-x="130"
     inkscape:window-y="0"
     inkscape:window-maximized="0" />
  <metadata
     id="metadata1586">
    <rdf:RDF>
      <cc:Work
         rdf:about="">
        <dc:format>image/svg+xml</dc:format>
        <dc:type
           rdf:resource="http://purl.org/dc/dcmitype/StillImage" />
        <dc:title></dc:title>
      </cc:Work>
    </rdf:RDF>
  </metadata>
  <g
     inkscape:label="Layer 1"
     inkscape:groupmode="layer"
     id="layer1">
    <g
       id="g368"
       transform="matrix(0.55158234,0,0,-0.55158234,61.212109,198.39282)">
      <path
         d="m 0,0 c -3.444,0 -6.796,1.781 -8.653,4.974 -2.777,4.773 -1.159,10.894 3.615,13.672 l 60.507,35.199 c 4.772,2.779 10.895,1.159 13.672,-3.616 2.777,-4.773 1.158,-10.894 -3.616,-13.671 L 5.019,1.358 C 3.438,0.437 1.707,0 0,0"
         style="fill:#000000;fill-opacity:1;fill-rule:nonzero;stroke:none"
         id="path370" />
    </g>
    <g
       id="g372"
       transform="matrix(0.55158234,0,0,-0.55158234,94.856756,197.89402)">
      <path
         d="m 0,0 c -1.611,0 -3.246,0.391 -4.761,1.213 l -61.523,33.391 c -4.854,2.634 -6.654,8.705 -4.019,13.559 2.635,4.854 8.705,6.651 13.559,4.019 L 4.779,18.791 C 9.633,16.156 11.432,10.086 8.798,5.231 6.986,1.894 3.549,0 0,0"
         style="fill:#000000;fill-opacity:1;fill-rule:nonzero;stroke:none"
         id="path374" />
    </g>
    <g
       id="g376"
       transform="matrix(0.55158234,0,0,-0.55158234,77.884292,207.91621)">
      <path
         d="M 0,0 H -0.005 C -5.528,0 -10.003,4.71 -10,10.232 l 0.035,68.798 c 0.003,5.522 4.48,9.97 10,9.97 H 0.04 c 5.523,0 9.998,-4.343 9.995,-9.866 L 10,10.153 C 9.997,4.632 5.52,0 0,0"
         style="fill:#000000;fill-opacity:1;fill-rule:nonzero;stroke:none"
         id="path378" />
    </g>
    <g
       id="g380"
       transform="matrix(0.55158234,0,0,-0.55158234,113.61243,179.63903)">
      <path
         d="m 0,0 c -3.444,0 -6.796,1.781 -8.653,4.974 -2.777,4.773 -1.159,10.894 3.615,13.672 l 60.507,35.199 c 4.772,2.779 10.894,1.16 13.672,-3.616 2.777,-4.773 1.158,-10.894 -3.616,-13.671 L 5.019,1.358 C 3.438,0.437 1.707,0 0,0"
         style="fill:#000000;fill-opacity:1;fill-rule:nonzero;stroke:none"
         id="path382" />
    </g>
    <g
       id="g384"
       transform="matrix(0.55158234,0,0,-0.55158234,147.25708,179.14023)">
      <path
         d="m 0,0 c -1.611,0 -3.246,0.391 -4.761,1.213 l -61.523,33.391 c -4.854,2.634 -6.654,8.705 -4.019,13.559 2.635,4.854 8.705,6.652 13.559,4.019 L 4.779,18.791 C 9.633,16.156 11.432,10.086 8.798,5.231 6.986,1.894 3.549,0 0,0"
         style="fill:#000000;fill-opacity:1;fill-rule:nonzero;stroke:none"
         id="path386" />
    </g>
    <g
       id="g388"
       transform="matrix(0.55158234,0,0,-0.55158234,130.28461,189.16243)">
      <path
         d="M 0,0 H -0.005 C -5.528,0 -10.003,4.71 -10,10.232 l 0.035,68.798 c 0.003,5.522 4.48,9.97 10,9.97 H 0.04 c 5.523,0 9.998,-4.343 9.995,-9.866 L 10,10.153 C 9.997,4.632 5.52,0 0,0"
         style="fill:#000000;fill-opacity:1;fill-rule:nonzero;stroke:none"
         id="path390" />
    </g>
    <g
       id="g392"
       transform="matrix(0.55158234,0,0,-0.55158234,68.519252,243.73569)">
      <path
         d="m 0,0 c -2.561,0 -5.122,0.978 -7.075,2.933 -3.903,3.907 -3.9,10.239 0.008,14.141 l 25.042,25.017 c 3.907,3.903 10.238,3.9 14.142,-0.007 3.903,-3.907 3.9,-10.239 -0.008,-14.142 L 7.067,2.926 C 5.115,0.976 2.557,0 0,0"
         style="fill:#000000;fill-opacity:1;fill-rule:nonzero;stroke:none"
         id="path394" />
    </g>
    <g
       id="g396"
       transform="matrix(0.55158234,0,0,-0.55158234,41.491717,225.53348)">
      <path
         d="m 0,0 c -2.561,0 -5.122,0.978 -7.075,2.933 -3.903,3.907 -3.9,10.238 0.008,14.141 L 8.725,32.851 c 3.907,3.902 10.238,3.9 14.142,-0.007 3.903,-3.907 3.9,-10.239 -0.008,-14.142 L 7.067,2.926 C 5.115,0.976 2.558,0 0,0"
         style="fill:#000000;fill-opacity:1;fill-rule:nonzero;stroke:none"
         id="path398" />
    </g>
    <g
       id="g400"
       transform="matrix(0.55158234,0,0,-0.55158234,104.92369,217.25974)">
      <path
         d="m 0,0 c -2.561,0 -5.122,0.978 -7.075,2.933 -3.903,3.907 -3.9,10.238 0.008,14.141 L 8.725,32.851 c 3.907,3.902 10.239,3.9 14.142,-0.007 3.903,-3.907 3.9,-10.239 -0.008,-14.142 L 7.067,2.926 C 5.115,0.976 2.558,0 0,0"
         style="fill:#000000;fill-opacity:1;fill-rule:nonzero;stroke:none"
         id="path402" />
    </g>
    <g
       id="g404"
       transform="matrix(0.55158234,0,0,-0.55158234,127.53856,227.18823)">
      <path
         d="m 0,0 c -2.561,0 -5.122,0.978 -7.075,2.933 -3.903,3.907 -3.9,10.238 0.008,14.141 l 51.992,51.94 c 3.907,3.903 10.239,3.9 14.142,-0.007 C 62.97,65.1 62.967,58.769 59.06,54.865 L 7.067,2.926 C 5.115,0.976 2.557,0 0,0"
         style="fill:#000000;fill-opacity:1;fill-rule:nonzero;stroke:none"
         id="path406" />
    </g>
    <g
       id="g408"
       transform="matrix(0.55158234,0,0,-0.55158234,169.52589,178.73244)">
      <path
         d="m 0,0 -10.084,0.004 c -5.523,0.002 -9.998,4.481 -9.996,10.004 0.002,5.521 4.479,9.996 10,9.996 h 0.004 L -0.044,20 c 13.213,0.144 25.585,5.386 34.838,14.766 9.27,9.398 14.376,21.894 14.376,35.187 0,27.566 -22.493,49.992 -50.141,49.992 -1.261,0 -2.646,-0.086 -3.578,-0.15 -2.654,-0.193 -5.274,0.696 -7.277,2.449 -2.003,1.752 -3.225,4.231 -3.396,6.886 -2.892,45.097 -40.611,80.423 -85.871,80.423 -30.348,0 -57.873,-15.51 -73.629,-41.49 -1.595,-2.629 -4.312,-4.379 -7.366,-4.744 -3.054,-0.36 -6.106,0.698 -8.275,2.878 -5.22,5.25 -12.176,8.141 -19.583,8.141 -15.227,0 -27.615,-12.386 -27.615,-27.61 0,-4.347 0.985,-8.51 2.928,-12.374 1.527,-3.038 1.406,-6.643 -0.32,-9.572 -1.727,-2.928 -4.823,-4.779 -8.22,-4.913 -26.863,-1.06 -47.906,-22.966 -47.906,-49.868 0,-27.521 22.303,-49.91 49.716,-49.91 h 12.283 c 5.523,0 10,-4.478 10,-10 0,-5.523 -4.477,-10 -10,-10 h -12.283 c -38.441,0 -69.716,31.361 -69.716,69.91 0,33.276 22.989,61.095 54.281,68.169 -0.508,2.798 -0.763,5.655 -0.763,8.558 0,26.252 21.36,47.61 47.615,47.61 8.724,0 17.084,-2.326 24.377,-6.687 19.983,26.425 50.82,41.902 84.476,41.902 52.598,0 96.935,-38.73 104.809,-89.762 C 40.216,137.377 69.17,106.976 69.17,69.953 69.17,51.37 62.019,33.886 49.032,20.721 36.031,7.542 18.654,0.183 0.102,0.001 0.068,0 0.034,0 0,0"
         style="fill:#000000;fill-opacity:1;fill-rule:nonzero;stroke:none"
         id="path410" />
    </g>
  </g>
</svg>
