<?xml version="1.0" encoding="UTF-8" standalone="no"?>
<svg
   xmlns:dc="http://purl.org/dc/elements/1.1/"
   xmlns:cc="http://creativecommons.org/ns#"
   xmlns:rdf="http://www.w3.org/1999/02/22-rdf-syntax-ns#"
   xmlns:svg="http://www.w3.org/2000/svg"
   xmlns="http://www.w3.org/2000/svg"
   xmlns:sodipodi="http://sodipodi.sourceforge.net/DTD/sodipodi-0.dtd"
   xmlns:inkscape="http://www.inkscape.org/namespaces/inkscape"
   width="210mm"
   height="297mm"
   viewBox="0 0 210 297"
   version="1.1"
   id="svg1735"
   inkscape:version="1.0.2 (e86c870879, 2021-01-15)"
   sodipodi:docname="tsnight.svg">
  <defs
     id="defs1729" />
  <sodipodi:namedview
     id="base"
     pagecolor="#ffffff"
     bordercolor="#666666"
     borderopacity="1.0"
     inkscape:pageopacity="0.0"
     inkscape:pageshadow="2"
     inkscape:zoom="0.35"
     inkscape:cx="400"
     inkscape:cy="560"
     inkscape:document-units="mm"
     inkscape:current-layer="layer1"
     inkscape:document-rotation="0"
     showgrid="false"
     inkscape:window-width="1267"
     inkscape:window-height="1041"
     inkscape:window-x="156"
     inkscape:window-y="0"
     inkscape:window-maximized="0" />
  <metadata
     id="metadata1732">
    <rdf:RDF>
      <cc:Work
         rdf:about="">
        <dc:format>image/svg+xml</dc:format>
        <dc:type
           rdf:resource="http://purl.org/dc/dcmitype/StillImage" />
        <dc:title></dc:title>
      </cc:Work>
    </rdf:RDF>
  </metadata>
  <g
     inkscape:label="Layer 1"
     inkscape:groupmode="layer"
     id="layer1">
    <g
       id="g264"
       transform="matrix(0.54603455,0,0,-0.54603455,169.8394,127.23849)">
      <path
         d="m 0,0 -10.584,0.004 c -5.522,0.002 -9.998,4.48 -9.996,10.004 0.002,5.521 4.479,9.996 10,9.996 h 0.004 L -0.044,20 c 27.279,0.295 49.464,22.693 49.464,49.953 0,27.566 -22.437,49.993 -50.016,49.993 -1.179,0 -2.439,-0.077 -3.516,-0.152 -2.653,-0.186 -5.274,0.697 -7.277,2.45 -2.003,1.752 -3.225,4.231 -3.395,6.886 -2.893,45.097 -40.598,80.423 -85.84,80.423 -30.338,0 -57.857,-15.511 -73.614,-41.49 -1.595,-2.629 -4.311,-4.379 -7.366,-4.744 -3.052,-0.36 -6.105,0.697 -8.274,2.878 -5.222,5.25 -12.174,8.141 -19.576,8.141 -15.225,0 -27.611,-12.386 -27.611,-27.611 0,-4.344 0.986,-8.507 2.93,-12.374 1.527,-3.037 1.406,-6.642 -0.32,-9.571 -1.727,-2.928 -4.823,-4.779 -8.22,-4.913 -26.862,-1.06 -47.905,-22.965 -47.905,-49.868 0,-27.521 22.303,-49.91 49.717,-49.91 h 10.283 c 5.523,0 10,-4.478 10,-10 0,-5.523 -4.477,-10 -10,-10 h -10.283 c -38.442,0 -69.717,31.361 -69.717,69.91 0,33.277 22.987,61.094 54.279,68.168 -0.508,2.799 -0.764,5.656 -0.764,8.558 0,26.253 21.358,47.611 47.611,47.611 8.721,0 17.078,-2.326 24.369,-6.687 19.982,26.425 50.814,41.902 84.461,41.902 52.585,0 96.91,-38.729 104.778,-89.766 C 40.556,137.338 69.42,106.953 69.42,69.953 69.42,31.757 38.324,0.376 0.102,0.001 0.068,0 0.034,0 0,0"
         style="fill:#000000;fill-opacity:1;fill-rule:nonzero;stroke:none"
         id="path266" />
    </g>
    <g
       id="g268"
       transform="matrix(0.54603455,0,0,-0.54603455,52.689654,178.56257)">
      <path
         d="m 0,0 c -2.557,0 -5.114,0.975 -7.066,2.924 -3.908,3.902 -3.913,10.234 -0.01,14.142 L 35.882,60.085 H 10 c -4.092,0 -7.771,2.492 -9.288,6.293 -1.516,3.8 -0.565,8.141 2.402,10.958 l 63,59.829 c 4.005,3.803 10.334,3.642 14.137,-0.365 3.803,-4.004 3.64,-10.334 -0.365,-14.137 L 35.052,80.085 H 60 c 4.043,0 7.689,-2.435 9.237,-6.17 1.549,-3.735 0.696,-8.035 -2.161,-10.896 L 7.076,2.934 C 5.123,0.979 2.562,0 0,0"
         style="fill:#000000;fill-opacity:1;fill-rule:nonzero;stroke:none"
         id="path270" />
    </g>
    <g
       id="g272"
       transform="matrix(0.54603455,0,0,-0.54603455,108.34412,159.37191)">
      <path
         d="m 0,0 c -2.561,0 -5.122,0.978 -7.075,2.933 -3.903,3.907 -3.9,10.238 0.008,14.141 L 35.841,59.939 H 10 c -4.087,0 -7.763,2.488 -9.283,6.282 -1.52,3.794 -0.578,8.132 2.379,10.953 l 63,60.121 c 3.996,3.812 10.325,3.665 14.138,-0.331 3.813,-3.995 3.665,-10.325 -0.33,-14.138 L 34.963,79.939 H 60 c 4.045,0 7.692,-2.437 9.24,-6.175 1.547,-3.738 0.69,-8.04 -2.173,-10.899 L 7.067,2.926 C 5.115,0.976 2.558,0 0,0"
         style="fill:#000000;fill-opacity:1;fill-rule:nonzero;stroke:none"
         id="path274" />
    </g>
    <g
       id="g276"
       transform="matrix(0.54603455,0,0,-0.54603455,80.496354,185.58156)">
      <path
         d="m 0,0 c -2.561,0 -5.122,0.978 -7.075,2.933 -3.903,3.907 -3.9,10.239 0.008,14.141 l 25.042,25.017 c 3.907,3.903 10.238,3.9 14.142,-0.007 3.903,-3.907 3.9,-10.239 -0.008,-14.142 L 7.067,2.926 C 5.115,0.976 2.557,0 0,0"
         style="fill:#000000;fill-opacity:1;fill-rule:nonzero;stroke:none"
         id="path278" />
    </g>
    <g
       id="g280"
       transform="matrix(0.54603455,0,0,-0.54603455,30.80721,167.56243)">
      <path
         d="m 0,0 c -2.561,0 -5.122,0.978 -7.075,2.933 -3.903,3.907 -3.9,10.238 0.008,14.141 L 8.725,32.851 c 3.907,3.902 10.238,3.899 14.142,-0.007 3.903,-3.907 3.9,-10.239 -0.008,-14.142 L 7.067,2.926 C 5.115,0.976 2.558,0 0,0"
         style="fill:#000000;fill-opacity:1;fill-rule:nonzero;stroke:none"
         id="path282" />
    </g>
    <g
       id="g284"
       transform="matrix(0.54603455,0,0,-0.54603455,128.54739,175.20692)">
      <path
         d="m 0,0 c -2.561,0 -5.122,0.978 -7.075,2.933 -3.903,3.907 -3.9,10.238 0.008,14.141 l 51.992,51.94 c 3.907,3.903 10.239,3.9 14.142,-0.007 C 62.97,65.1 62.967,58.769 59.06,54.865 L 7.067,2.926 C 5.115,0.976 2.557,0 0,0"
         style="fill:#000000;fill-opacity:1;fill-rule:nonzero;stroke:none"
         id="path286" />
    </g>
  </g>
</svg>
