<?xml version="1.0" encoding="UTF-8" standalone="no"?>
<svg
   xmlns:dc="http://purl.org/dc/elements/1.1/"
   xmlns:cc="http://creativecommons.org/ns#"
   xmlns:rdf="http://www.w3.org/1999/02/22-rdf-syntax-ns#"
   xmlns:svg="http://www.w3.org/2000/svg"
   xmlns="http://www.w3.org/2000/svg"
   xmlns:sodipodi="http://sodipodi.sourceforge.net/DTD/sodipodi-0.dtd"
   xmlns:inkscape="http://www.inkscape.org/namespaces/inkscape"
   width="210mm"
   height="297mm"
   viewBox="0 0 210 297"
   version="1.1"
   id="svg1825"
   inkscape:version="1.0.2 (e86c870879, 2021-01-15)"
   sodipodi:docname="windy.svg">
  <defs
     id="defs1819" />
  <sodipodi:namedview
     id="base"
     pagecolor="#ffffff"
     bordercolor="#666666"
     borderopacity="1.0"
     inkscape:pageopacity="0.0"
     inkscape:pageshadow="2"
     inkscape:zoom="0.35"
     inkscape:cx="400"
     inkscape:cy="560"
     inkscape:document-units="mm"
     inkscape:current-layer="layer1"
     inkscape:document-rotation="0"
     showgrid="false"
     inkscape:window-width="1267"
     inkscape:window-height="1041"
     inkscape:window-x="182"
     inkscape:window-y="0"
     inkscape:window-maximized="0" />
  <metadata
     id="metadata1822">
    <rdf:RDF>
      <cc:Work
         rdf:about="">
        <dc:format>image/svg+xml</dc:format>
        <dc:type
           rdf:resource="http://purl.org/dc/dcmitype/StillImage" />
        <dc:title></dc:title>
      </cc:Work>
    </rdf:RDF>
  </metadata>
  <g
     inkscape:label="Layer 1"
     inkscape:groupmode="layer"
     id="layer1">
    <g
       id="g180"
       transform="matrix(0.59010919,0,0,-0.59010919,172.46017,140.46378)">
      <path
         d="m 0,0 h -253.082 c -19.672,0 -36.292,16.939 -36.292,36.989 0,20.396 16.254,36.99 36.232,36.99 19.963,0 36.204,-16.485 36.204,-36.747 0,-5.523 -4.478,-10 -10,-10 -5.523,0 -10,4.477 -10,10 0,9.078 -7.42,16.747 -16.204,16.747 -8.798,0 -16.232,-7.78 -16.232,-16.99 0,-9.209 7.461,-16.989 16.292,-16.989 L 0,20 C 5.522,20 10,15.523 10,10 10,4.477 5.522,0 0,0"
         style="fill:#000000;fill-opacity:1;fill-rule:nonzero;stroke:none"
         id="path182" />
    </g>
    <g
       id="g184"
       transform="matrix(0.59010919,0,0,-0.59010919,202.55575,115.08909)">
      <path
         d="m 0,0 h -204.862 c -25.126,0 -45.568,20.643 -45.568,46.017 0,25.374 20.349,46.018 45.361,46.018 24.955,0 45.257,-20.561 45.257,-45.833 0,-5.523 -4.478,-10 -10,-10 -5.523,0 -10,4.477 -10,10 0,14.244 -11.331,25.833 -25.257,25.833 -13.984,0 -25.361,-11.672 -25.361,-26.018 0,-14.102 11.708,-26.017 25.568,-26.017 L 0,20 C 5.522,20 10,15.523 10,10 10,4.477 5.522,0 0,0"
         style="fill:#000000;fill-opacity:1;fill-rule:nonzero;stroke:none"
         id="path186" />
    </g>
    <g
       id="g188"
       transform="matrix(0.59010919,0,0,-0.59010919,42.26103,206.45168)">
      <path
         d="m 0,0 c -12.139,0 -23.521,4.606 -32.053,12.971 -8.615,8.446 -13.36,19.79 -13.36,31.94 0,24.765 20.418,44.912 45.515,44.912 h 249.534 c 5.522,0 10,-4.477 10,-10 0,-5.522 -4.478,-10 -10,-10 H 0.102 c -14.308,0 -25.515,-10.942 -25.515,-24.912 C -25.413,30.942 -14.25,20 0,20 c 14.222,0 25.362,11.023 25.362,25.096 0,5.522 4.478,10 10,10 5.523,0 10,-4.478 10,-10 C 45.362,20.229 25.013,0 0,0"
         style="fill:#000000;fill-opacity:1;fill-rule:nonzero;stroke:none"
         id="path190" />
    </g>
  </g>
</svg>
